<svg width="34" height="24" viewBox="0 0 34 24" fill="none" xmlns="http://www.w3.org/2000/svg">
<g clip-path="url(#clip0_863_1518)">
<path d="M22.5543 23.2097C23.1964 23.4032 23.8546 23.5645 24.5288 23.6935C25.0425 23.7903 25.5722 23.8871 26.0859 23.9355C26.8404 24 27.5949 24.0323 28.3494 23.9677C29.1199 23.8871 29.8905 23.7419 30.5968 23.4193C31.255 23.1129 31.8168 22.6774 32.1539 22C32.6355 21.0484 33.085 20.0968 33.5666 19.1452C33.7592 18.7581 33.9518 18.371 33.9839 17.9355C34.0642 17.1129 33.8876 16.3387 33.5505 15.5806C33.1331 14.6452 32.5392 13.8226 31.8489 13.0484C30.5807 11.629 29.1199 10.4839 27.5307 9.46774C26.6638 8.91935 25.7809 8.41935 24.8659 7.98386C24.4004 7.75806 23.9509 7.54838 23.4693 7.35483C23.3569 7.30644 23.2927 7.25806 23.3409 7.12902C23.389 6.91935 23.4211 6.69354 23.4372 6.48386C23.5014 5.67741 23.389 4.91935 22.9235 4.25806C22.2814 3.35483 21.6232 2.46773 20.9811 1.58064C20.7243 1.2258 20.4353 0.919347 20.0661 0.677412C19.3437 0.225799 18.5411 0.0806376 17.7224 0.0322505C16.9358 -7.60145e-06 16.1652 0.112896 15.3947 0.274186C14.865 0.387089 14.3352 0.532251 13.8055 0.693541C12.746 1.04838 11.7025 1.49999 10.7073 2.01612C9.51935 2.64515 8.3796 3.35483 7.30406 4.14515C5.74693 5.29032 4.31822 6.56451 3.0661 8.03225C2.08687 9.12903 1.25212 10.3226 0.642111 11.6774C0.240789 12.5806 -0.0481628 13.5323 -4.19328e-06 14.5484C0.0321016 15.1935 0.208683 15.7742 0.5779 16.2903C1.18791 17.1452 1.83002 17.9839 2.42398 18.8387C2.84136 19.4355 3.35505 19.871 4.02927 20.1129C4.57507 20.3226 5.15297 20.4032 5.73087 20.4193C6.51747 20.4516 7.30406 20.3548 8.07459 20.1935C8.47592 20.1129 8.87724 19.9839 9.26251 19.8871C10.8999 19.3387 12.8905 18.3548 12.8905 18.3548C13.1794 18.2097 13.1794 18.2097 13.4202 18.4193C14.5439 19.3548 15.7479 20.1774 17.016 20.871C17.0642 20.8548 19.7611 22.3871 22.5543 23.2097ZM21.4788 11C21.559 10.9032 21.6072 10.9193 21.7035 10.9516C22.5222 11.3064 23.3248 11.6774 24.1114 12.1129C24.1275 12.1129 24.1435 12.129 24.1596 12.129C24.7856 12.4839 25.4117 12.8387 26.0217 13.2419C26.8725 13.8064 27.6752 14.4032 28.4457 15.0645C29.441 15.9355 30.3239 16.871 31.0302 17.9839C31.1105 18.1129 31.0944 18.1774 30.9821 18.2581C30.5968 18.5484 30.1473 18.7097 29.6818 18.8064C29.152 18.9193 28.6223 18.9516 28.0925 18.9355C27.3862 18.9193 26.6799 18.8226 25.9896 18.6935C25.2672 18.5645 24.5449 18.371 23.8546 18.1452C22.6346 17.7419 21.4466 17.2419 20.3069 16.6613C19.4721 16.2258 18.6534 15.7419 17.8669 15.2097C17.6742 15.0806 17.6742 15.0806 17.8508 14.9355C19.1992 13.7742 20.4353 12.4677 21.4788 11ZM10.322 15.1935C9.51935 15.5968 8.71671 15.9516 7.88196 16.2581C7.33616 16.4516 6.77431 16.629 6.21246 16.7581C5.28139 16.9839 4.35033 17.1129 3.40321 17.0323C2.66477 16.9677 1.95845 16.7903 1.38054 16.2742C0.947116 15.8871 0.69027 15.4032 0.610005 14.8226C0.481582 13.9193 0.706323 13.0645 1.02738 12.2258C1.23607 11.6935 1.49291 11.1935 1.78187 10.7097C1.94239 10.4355 2.11898 10.1774 2.2795 9.91935C3.17847 8.62903 4.2219 7.48386 5.37771 6.41935C5.44192 6.37096 5.49008 6.30644 5.55429 6.25806C5.66666 6.16128 5.77903 6.06451 5.87535 5.96773C6.4372 5.48386 7.01511 5.03225 7.60906 4.59677C8.60434 3.87096 9.63172 3.2258 10.7073 2.62902C11.237 2.3387 11.7668 2.09677 12.3126 1.8387C12.7941 1.64515 13.2757 1.43548 13.7734 1.27419C14.271 1.1129 14.7847 0.951605 15.2984 0.838702C15.7639 0.741928 16.2295 0.661283 16.695 0.612896C17.1926 0.564509 17.7063 0.54838 18.204 0.629025C18.6855 0.693541 19.1511 0.806444 19.5845 1.04838C20.1624 1.37096 20.5477 1.85483 20.7243 2.49999C20.8687 3.04838 20.8527 3.6129 20.7403 4.16128C20.4514 5.62902 19.7129 6.87096 18.8621 8.04838C17.6903 9.66128 16.2776 11.0645 14.7365 12.3064C14.6563 12.371 14.6081 12.371 14.5439 12.2903C14.4636 12.1935 14.3994 12.0968 14.3192 12C14.255 11.9193 14.271 11.871 14.3513 11.8226C14.9292 11.371 15.475 10.871 16.0047 10.3548C17.1124 9.25806 18.1076 8.08064 18.8782 6.70967C19.1992 6.1129 19.4721 5.49999 19.6166 4.82257C19.7771 4.06451 19.7771 3.30644 19.3277 2.62902C19.0227 2.17741 18.6053 1.88709 18.0916 1.70967C17.3692 1.46773 16.6147 1.46773 15.8602 1.54838C14.7044 1.67741 13.6128 2.04838 12.5373 2.48386C11.831 2.79032 11.1407 3.12902 10.4665 3.49999C10.1133 3.69354 9.7762 3.90322 9.43909 4.1129C8.90934 4.43548 8.39565 4.79032 7.89801 5.16128C6.64589 6.09677 5.47403 7.12903 4.44664 8.29032C3.62795 9.20967 2.90557 10.1935 2.35977 11.2903C2.00661 12.0323 1.73371 12.7903 1.73371 13.6129C1.73371 14.7581 2.31161 15.5484 3.38715 15.9032C4.07743 16.129 4.78375 16.129 5.50613 16.0484C6.93484 15.8871 8.25118 15.4032 9.55146 14.8226C9.71199 14.7581 9.85646 14.6774 10.0009 14.5968C10.0812 14.5484 10.1454 14.5645 10.1936 14.6613C10.2417 14.7742 10.322 14.8871 10.3862 14.9839C10.4183 15.0968 10.4023 15.1613 10.322 15.1935ZM14.0302 11.3387C13.9821 11.3871 13.9178 11.4193 13.8697 11.3387C13.5486 10.7742 13.2918 10.1774 13.2757 9.49999C13.2757 9.37096 13.3078 9.32257 13.4363 9.32257C13.7573 9.30644 14.0623 9.29032 14.2871 9.29032C14.9131 9.29032 15.4429 9.32257 15.9726 9.38709C16.0047 9.38709 16.0368 9.37096 16.0529 9.41935C16.0689 9.46774 16.0208 9.49999 15.9887 9.53225C15.475 10.0645 14.9452 10.5645 14.3834 11.0323C14.2871 11.129 14.1586 11.2258 14.0302 11.3387ZM10.7554 8.56451C10.3541 9.35483 9.96883 10.1452 9.59962 10.9355C9.37488 11.4193 9.32672 11.9355 9.39093 12.4677C9.45514 12.9839 9.58357 13.4677 9.79225 13.9355C9.84041 14.0161 9.80831 14.0645 9.72804 14.1129C8.97356 14.4839 8.18696 14.8064 7.38432 15.0806C6.75826 15.2903 6.1322 15.4516 5.49008 15.5161C4.68744 15.5968 3.88479 15.629 3.14636 15.2258C3.03399 15.1613 3.00188 15.1129 3.0661 15C3.13031 14.8871 3.16241 14.7742 3.21057 14.6613C3.41926 14.1935 3.66005 13.7581 3.93295 13.3226C4.63928 12.1935 5.47403 11.1774 6.38904 10.2419C7.07932 9.51612 7.8338 8.85483 8.60434 8.20967C8.79697 8.04838 8.98961 7.90322 9.1983 7.74193C10.4504 6.79032 11.7668 5.93548 13.1634 5.2258C13.9821 4.80644 14.8329 4.43548 15.6997 4.12902C16.3579 3.90322 17.0321 3.70967 17.7224 3.56451C18.0916 3.48386 18.4769 3.43548 18.8621 3.40322C19.0227 3.38709 19.0708 3.45161 19.0869 3.59677C19.1511 4.19354 19.0548 4.77419 18.8621 5.3387C18.814 5.48386 18.7498 5.6129 18.7016 5.74193C18.6695 5.8387 18.6213 5.85483 18.525 5.8387C18.1398 5.79032 17.7705 5.7258 17.3853 5.67741C16.7432 5.6129 16.101 5.58064 15.4589 5.6129C14.8168 5.64515 14.1907 5.7258 13.5807 5.90322C12.7139 6.14515 11.9594 6.54838 11.4136 7.29032C11.1407 7.67741 10.9641 8.14515 10.7554 8.56451ZM33.0689 18.7903C32.7318 19.3064 32.2342 19.6452 31.6723 19.871C30.5647 20.3064 29.4249 20.371 28.2531 20.3064C27.8839 20.2903 27.5307 20.2581 27.1615 20.2097C26.712 20.1452 26.2786 20.0645 25.8291 19.9677C25.3635 19.871 24.9141 19.7581 24.4646 19.629C23.7743 19.4355 23.084 19.2097 22.3938 18.9355C20.9008 18.3548 19.4561 17.6452 18.0755 16.8064C16.3579 15.7581 14.7686 14.5323 13.4202 13.0161C12.762 12.2742 12.1841 11.4677 11.7989 10.5323C11.526 9.87096 11.3654 9.19354 11.5099 8.48386C11.6062 8.01612 11.8149 7.6129 12.1681 7.29032C12.5855 6.90322 13.0831 6.64515 13.6128 6.48386C14.6884 6.16128 15.796 6.1129 16.9037 6.20967C17.3532 6.24193 17.7866 6.32257 18.2361 6.35483C18.3484 6.37096 18.3645 6.41935 18.3163 6.49999C18.22 6.66128 18.1398 6.82257 18.0434 6.98386C17.9953 7.06451 17.915 7.03225 17.8508 7.03225C17.3532 7.01612 16.8555 6.93548 16.3579 6.96773C15.5231 7.01612 14.7044 7.12902 13.966 7.53225C13.356 7.87096 12.9386 8.37096 12.7941 9.06451C12.7139 9.49999 12.746 9.95161 12.8744 10.3871C13.2757 11.7258 14.1426 12.7419 15.1058 13.6935C16.7753 15.3226 18.7337 16.5484 20.8206 17.5484C21.864 18.0484 22.9235 18.4677 24.0312 18.8064C24.6893 19 25.3635 19.1774 26.0378 19.2903C26.8565 19.4355 27.6752 19.5484 28.4939 19.5161C29.3928 19.4839 30.2918 19.371 31.0784 18.8871C31.8489 18.4032 32.2342 17.7097 32.186 16.7903C32.1379 15.9516 31.7847 15.2419 31.3513 14.5645C31.2228 14.3548 31.0944 14.1613 30.9339 13.9839C30.2276 13.0806 29.3928 12.2903 28.4778 11.5806C28.1567 11.3387 27.8357 11.0968 27.4986 10.8548C27.2578 10.6452 26.0859 9.95161 26.0859 9.95161C25.7007 9.70967 25.2833 9.51612 24.898 9.29032C24.3041 8.98386 23.694 8.69354 23.084 8.45161C22.9877 8.40322 22.9556 8.38709 23.0198 8.27419C23.068 8.17741 23.1001 8.06451 23.1161 7.96773C23.1482 7.8387 23.2125 7.80644 23.3409 7.87096C24.1114 8.20967 24.8659 8.56451 25.6043 8.95161C26.8565 9.6129 28.0444 10.3871 29.152 11.2581C30.3239 12.1774 31.3994 13.1935 32.2823 14.4193C32.7479 15.0806 33.1492 15.7742 33.3418 16.5484C33.5184 17.3387 33.5184 18.0968 33.0689 18.7903Z" fill="black"/>
</g>
<defs>
<clipPath id="clip0_863_1518">
<rect width="34" height="24" fill="white"/>
</clipPath>
</defs>
</svg>
