<svg width="288" height="133" viewBox="0 0 288 133" fill="none" xmlns="http://www.w3.org/2000/svg">
<path d="M31.968 64.168C29.152 64.168 26.4 63.752 23.712 62.92C21.088 62.088 18.656 60.68 16.416 58.696C14.368 57.416 12.672 55.592 11.328 53.224C10.048 50.792 9.536 48.296 9.792 45.736C10.112 42.728 11.168 39.624 12.96 36.424C14.752 33.224 17.088 30.056 19.968 26.92C22.848 23.72 26.048 20.744 29.568 17.992C33.152 15.176 36.864 12.68 40.704 10.504C44.544 8.264 48.288 6.504 51.936 5.224C56.16 3.752 60.192 3.016 64.032 3.016C66.464 3.016 68.448 3.336 69.984 3.976C71.584 4.616 72.416 5.608 72.48 6.952C73.76 8.68 74.4 10.568 74.4 12.616C74.4 15.048 73.568 17.448 71.904 19.816C70.304 22.184 68.32 24.424 65.952 26.536C63.584 28.648 61.184 30.504 58.752 32.104C56.32 33.64 54.272 34.856 52.608 35.752C52.352 36.008 52.096 36.136 51.84 36.136C51.392 36.136 51.392 35.848 51.84 35.272C52.928 34.888 54.272 34.088 55.872 32.872C57.536 31.592 59.296 30.056 61.152 28.264C63.008 26.472 64.736 24.616 66.336 22.696C68 20.712 69.344 18.792 70.368 16.936C71.392 15.016 71.904 13.32 71.904 11.848C71.904 10.504 71.36 9.448 70.272 8.68C69.184 7.848 67.392 7.432 64.896 7.432C61.568 7.432 57.824 8.136 53.664 9.544C49.504 10.888 45.28 12.808 40.992 15.304C36.704 17.8 32.704 20.808 28.992 24.328C25.28 27.784 22.176 31.656 19.68 35.944C17.248 40.232 15.776 44.808 15.264 49.672C15.2 49.928 15.168 50.184 15.168 50.44C15.168 50.632 15.168 50.856 15.168 51.112C15.168 53.736 15.84 55.848 17.184 57.448C18.592 59.048 20.416 60.2 22.656 60.904C24.896 61.608 27.328 61.96 29.952 61.96C31.04 61.96 32.128 61.896 33.216 61.768C34.368 61.64 35.488 61.48 36.576 61.288C42.016 60.264 47.04 58.728 51.648 56.68C56.256 54.632 60.352 52.392 63.936 49.96C64.512 49.576 64.896 49.384 65.088 49.384C65.216 49.384 65.28 49.448 65.28 49.576C65.28 49.768 65.088 50.056 64.704 50.44C63.296 51.784 61.6 53.192 59.616 54.664C57.632 56.136 55.616 57.384 53.568 58.408C50.432 59.944 46.976 61.288 43.2 62.44C39.488 63.592 35.744 64.168 31.968 64.168ZM69.6128 62.056C68.2688 62.056 67.2448 61.416 66.5408 60.136C65.9008 58.792 65.5808 57.64 65.5808 56.68C65.5808 54.44 66.2528 52.104 67.5968 49.672C68.9408 47.24 70.6368 44.936 72.6848 42.76C74.7968 40.584 77.0048 38.824 79.3088 37.48C81.6128 36.136 83.7568 35.464 85.7408 35.464C86.3168 35.464 86.9568 35.72 87.6608 36.232C88.4288 36.68 89.1328 37.416 89.7728 38.44C89.9008 38.568 90.0608 38.856 90.2528 39.304C90.4448 39.688 90.4448 40.04 90.2528 40.36L90.1568 40.168C90.0288 39.848 89.7408 39.592 89.2928 39.4C88.8448 39.144 88.1728 39.016 87.2768 39.016C85.8048 39.016 84.1408 39.528 82.2848 40.552C80.4928 41.576 78.6688 42.952 76.8128 44.68C75.0208 46.408 73.3888 48.296 71.9168 50.344C70.4448 52.392 69.3568 54.472 68.6528 56.584C68.2048 57.672 67.9808 58.6 67.9808 59.368C67.9808 60.328 68.3328 60.808 69.0368 60.808C69.5488 60.808 70.1568 60.552 70.8608 60.04C72.2048 59.016 73.6128 57.704 75.0848 56.104C76.5568 54.504 77.9648 52.84 79.3088 51.112C80.7168 49.384 81.9328 47.784 82.9568 46.312C84.0448 44.84 84.8128 43.752 85.2608 43.048C85.4528 42.792 85.6768 42.664 85.9328 42.664C86.2528 42.6 86.6368 42.568 87.0848 42.568C88.3648 42.568 89.1648 42.792 89.4848 43.24C89.8688 43.624 89.9008 44.04 89.5808 44.488C88.7488 45.704 87.8528 47.112 86.8928 48.712C85.9968 50.312 85.1968 51.88 84.4928 53.416C83.8528 54.952 83.5328 56.328 83.5328 57.544C83.5328 58.504 83.9168 58.984 84.6848 58.984C85.3888 58.984 86.1568 58.568 86.9888 57.736C87.7568 57.032 88.6528 56.008 89.6768 54.664C90.7648 53.32 91.8208 51.912 92.8448 50.44C93.9328 48.968 94.8288 47.688 95.5328 46.6C95.7888 46.28 95.9808 46.152 96.1088 46.216C96.3008 46.216 96.3008 46.408 96.1088 46.792C95.0848 48.392 94.0288 50.056 92.9408 51.784C91.8528 53.448 90.7008 55.016 89.4848 56.488C87.1808 59.432 85.4528 60.904 84.3008 60.904C83.2768 60.904 82.3168 60.584 81.4208 59.944C80.5248 59.304 80.0768 58.376 80.0768 57.16C80.0768 55.88 80.3328 54.408 80.8448 52.744C81.4208 51.016 81.9328 49.672 82.3808 48.712C81.0368 50.76 79.5008 52.808 77.7728 54.856C76.0448 56.904 74.4128 58.632 72.8768 60.04C71.4048 61.384 70.3168 62.056 69.6128 62.056ZM121.024 68.488C119.296 68.488 118.144 67.944 117.568 66.856C116.992 65.832 116.704 64.808 116.704 63.784C116.704 62.12 117.024 60.392 117.664 58.6C118.368 56.744 119.136 54.92 119.968 53.128C121.44 50.12 122.592 47.848 123.424 46.312C124.256 44.776 124.832 43.624 125.152 42.856C125.536 42.088 125.728 41.384 125.728 40.744C125.728 40.104 125.568 39.688 125.248 39.496C124.928 39.304 124.608 39.208 124.288 39.208C123.84 39.208 123.328 39.4 122.752 39.784C122.176 40.104 121.632 40.52 121.12 41.032C120.032 42.184 118.848 43.656 117.568 45.448C116.288 47.176 115.04 49 113.824 50.92C112.672 52.776 111.648 54.472 110.752 56.008C109.92 57.544 109.344 58.632 109.024 59.272C108.448 60.424 107.776 61 107.008 61C106.112 61 105.184 60.36 104.224 59.08C104.672 58.056 105.184 56.904 105.76 55.624C106.336 54.28 106.912 52.904 107.488 51.496C108.192 49.832 108.832 48.008 109.408 46.024C110.048 44.04 110.368 42.376 110.368 41.032C110.368 39.688 110.016 39.016 109.312 39.016C108.736 39.016 107.968 39.496 107.008 40.456C106.112 41.288 104.992 42.568 103.648 44.296C102.368 45.96 101.056 47.816 99.7118 49.864C98.3678 51.912 97.1838 53.896 96.1598 55.816C95.1998 57.672 94.5918 59.208 94.3358 60.424C94.2078 60.744 93.9198 60.904 93.4718 60.904C92.8958 60.904 92.2878 60.648 91.6478 60.136C91.0078 59.624 90.7198 58.792 90.7838 57.64C90.7838 57.448 91.0398 56.744 91.5518 55.528C92.0638 54.248 92.6718 52.776 93.3758 51.112C94.1438 49.448 94.8798 47.816 95.5838 46.216C96.2878 44.616 96.8638 43.336 97.3118 42.376C96.8638 41.992 96.6078 41.704 96.5438 41.512C96.5438 41.32 96.5758 41.128 96.6398 40.936C96.8318 40.68 97.1198 40.2 97.5038 39.496C97.8878 38.728 98.2718 37.992 98.6558 37.288C99.0398 36.52 99.2638 36.008 99.3278 35.752C99.5838 35.624 100.096 35.432 100.864 35.176C101.696 34.856 102.496 34.696 103.264 34.696H103.648C104.416 34.696 104.8 34.92 104.8 35.368C104.8 35.816 104.576 36.392 104.128 37.096C103.936 37.416 103.52 38.184 102.88 39.4C102.24 40.552 101.504 41.896 100.672 43.432C99.8398 44.968 99.0718 46.44 98.3678 47.848C97.7278 49.192 97.2478 50.248 96.9278 51.016C96.6078 51.72 96.5118 52.456 96.6398 53.224C97.9198 51.112 99.4558 48.776 101.248 46.216C103.04 43.592 104.928 41.256 106.912 39.208C107.68 38.312 108.512 37.864 109.408 37.864C111.2 37.864 112.48 38.28 113.248 39.112C114.08 39.944 114.496 40.872 114.496 41.896C114.496 43.112 114.144 44.52 113.44 46.12C113.184 46.76 112.736 47.912 112.096 49.576C111.456 51.176 110.816 52.744 110.176 54.28C111.136 52.936 112.32 51.24 113.728 49.192C115.2 47.144 116.704 45.128 118.24 43.144C119.84 41.096 121.28 39.4 122.56 38.056C123.84 36.712 124.768 36.04 125.344 36.04C126.752 36.04 128 36.552 129.088 37.576C130.24 38.536 130.816 39.368 130.816 40.072C130.816 41.096 130.336 42.44 129.376 44.104C128.416 45.768 126.816 48.392 124.576 51.976C123.296 54.024 122.016 56.328 120.736 58.888C119.52 61.384 118.912 63.56 118.912 65.416C118.912 67.08 119.392 67.912 120.352 67.912C120.928 67.912 121.536 67.624 122.176 67.048C122.624 66.664 123.072 66.248 123.52 65.8C123.968 65.352 124.416 64.968 124.864 64.648C124.352 65.8 123.808 66.728 123.232 67.432C122.656 68.136 121.92 68.488 121.024 68.488ZM151.165 33.256C150.205 32.872 149.373 32.264 148.669 31.432C148.029 30.536 147.805 29.576 147.997 28.552C148.125 27.976 148.285 27.624 148.477 27.496C148.733 27.304 149.405 27.176 150.493 27.112L155.581 26.248C156.157 26.12 156.445 26.12 156.445 26.248C156.445 26.504 156.221 26.696 155.773 26.824C154.749 27.08 153.853 27.464 153.085 27.976C152.317 28.488 151.677 29.192 151.165 30.088C151.037 30.28 150.973 30.568 150.973 30.952C150.973 31.336 151.037 31.72 151.165 32.104C151.357 32.424 151.549 32.712 151.741 32.968C151.933 33.224 151.933 33.352 151.741 33.352C151.613 33.352 151.421 33.32 151.165 33.256ZM139.933 62.344C137.757 62.344 136.221 61.672 135.325 60.328C134.493 58.92 134.077 57.256 134.077 55.336C134.077 53.864 134.269 52.36 134.653 50.824C135.101 49.288 135.645 47.912 136.285 46.696C135.709 46.44 135.517 46.216 135.709 46.024C136.157 45.384 136.701 44.584 137.341 43.624C138.045 42.664 138.749 41.704 139.453 40.744C140.285 39.656 141.021 38.76 141.661 38.056C142.365 37.352 143.101 37 143.869 37C144.381 37 144.829 37.16 145.213 37.48C145.661 37.8 146.109 38.12 146.557 38.44C145.085 39.976 143.613 41.864 142.141 44.104C140.669 46.344 139.453 48.712 138.493 51.208C137.597 53.64 137.149 56.04 137.149 58.408C137.149 59.432 137.373 60.168 137.821 60.616C138.333 61 138.941 61.192 139.645 61.192C141.117 61.192 142.429 60.68 143.581 59.656C144.797 58.568 146.205 57 147.805 54.952C149.469 52.84 151.037 50.632 152.509 48.328C152.893 47.816 153.181 47.528 153.373 47.464C153.629 47.4 153.661 47.528 153.469 47.848C152.957 48.872 152.157 50.184 151.069 51.784C150.045 53.32 148.957 54.856 147.805 56.392C146.653 57.928 145.661 59.112 144.829 59.944C143.997 60.776 143.133 61.384 142.237 61.768C141.405 62.152 140.637 62.344 139.933 62.344ZM156.143 62.728C154.543 62.728 153.167 62.152 152.015 61C150.863 59.912 150.287 58.12 150.287 55.624C150.287 52.424 151.119 48.52 152.783 43.912C154.447 39.304 156.559 34.472 159.119 29.416C161.103 25.64 163.215 22.024 165.455 18.568C167.695 15.112 169.903 12.04 172.079 9.352C174.255 6.6 176.239 4.456 178.031 2.92C179.887 1.32 181.391 0.519995 182.543 0.519995C183.631 0.519995 184.431 0.807995 184.943 1.384C185.519 1.96 185.999 2.6 186.383 3.304C186.831 4.008 187.407 4.584 188.111 5.032C188.047 6.504 187.279 8.36 185.807 10.6C184.335 12.84 182.575 15.272 180.527 17.896C179.183 19.496 177.263 21.768 174.767 24.712C172.335 27.592 169.903 30.568 167.471 33.64C165.487 36.072 163.727 38.408 162.191 40.648C160.655 42.888 159.471 44.744 158.639 46.216C158.383 46.664 158.191 46.824 158.062 46.696C157.935 46.568 157.935 46.376 158.062 46.12C158.703 44.84 159.695 43.208 161.039 41.224C162.447 39.176 164.015 37 165.743 34.696C167.471 32.392 169.167 30.184 170.831 28.072C172.495 25.896 173.935 24.008 175.151 22.408C176.367 20.808 177.199 19.752 177.647 19.24C178.607 18.024 179.535 16.872 180.431 15.784C181.327 14.632 182.127 13.544 182.831 12.52C183.599 11.368 184.143 10.344 184.463 9.448C184.847 8.552 185.039 7.816 185.039 7.24C185.039 6.216 184.623 5.704 183.791 5.704C183.215 5.704 182.479 5.992 181.583 6.568C180.751 7.144 179.791 8.072 178.703 9.352C177.103 11.272 175.215 13.64 173.039 16.456C170.927 19.208 168.751 22.248 166.511 25.576C164.271 28.904 162.191 32.392 160.271 36.04C158.415 39.624 156.879 43.24 155.663 46.888C154.511 50.472 153.935 53.928 153.935 57.256C153.935 58.792 154.255 59.88 154.895 60.52C155.535 61.16 156.303 61.48 157.199 61.48C158.159 61.48 159.151 61.224 160.174 60.712C161.263 60.136 162.159 59.432 162.863 58.6C163.951 57.448 165.007 56.168 166.031 54.76C167.119 53.352 168.079 52.04 168.911 50.824C169.807 49.544 170.447 48.584 170.831 47.944C171.023 47.624 171.215 47.464 171.406 47.464C171.727 47.464 171.727 47.72 171.406 48.232C170.383 49.96 169.167 51.784 167.759 53.704C166.415 55.56 165.199 57.16 164.111 58.504C163.087 59.784 161.839 60.808 160.367 61.576C158.959 62.344 157.551 62.728 156.143 62.728ZM171.707 62.056C170.363 62.056 169.339 61.416 168.635 60.136C167.995 58.792 167.675 57.64 167.675 56.68C167.675 54.44 168.347 52.104 169.691 49.672C171.035 47.24 172.731 44.936 174.779 42.76C176.891 40.584 179.099 38.824 181.403 37.48C183.707 36.136 185.851 35.464 187.835 35.464C188.411 35.464 189.051 35.72 189.755 36.232C190.523 36.68 191.227 37.416 191.867 38.44C191.995 38.568 192.155 38.856 192.347 39.304C192.539 39.688 192.539 40.04 192.347 40.36L192.251 40.168C192.123 39.848 191.835 39.592 191.387 39.4C190.939 39.144 190.267 39.016 189.371 39.016C187.899 39.016 186.235 39.528 184.379 40.552C182.587 41.576 180.763 42.952 178.907 44.68C177.115 46.408 175.483 48.296 174.011 50.344C172.539 52.392 171.451 54.472 170.747 56.584C170.299 57.672 170.075 58.6 170.075 59.368C170.075 60.328 170.427 60.808 171.131 60.808C171.643 60.808 172.251 60.552 172.955 60.04C174.299 59.016 175.707 57.704 177.179 56.104C178.651 54.504 180.059 52.84 181.403 51.112C182.811 49.384 184.027 47.784 185.051 46.312C186.139 44.84 186.907 43.752 187.355 43.048C187.547 42.792 187.771 42.664 188.027 42.664C188.347 42.6 188.731 42.568 189.179 42.568C190.459 42.568 191.259 42.792 191.579 43.24C191.963 43.624 191.995 44.04 191.675 44.488C190.843 45.704 189.947 47.112 188.987 48.712C188.091 50.312 187.291 51.88 186.587 53.416C185.947 54.952 185.627 56.328 185.627 57.544C185.627 58.504 186.011 58.984 186.779 58.984C187.483 58.984 188.251 58.568 189.083 57.736C189.851 57.032 190.747 56.008 191.771 54.664C192.859 53.32 193.915 51.912 194.939 50.44C196.027 48.968 196.923 47.688 197.627 46.6C197.883 46.28 198.075 46.152 198.203 46.216C198.395 46.216 198.395 46.408 198.203 46.792C197.179 48.392 196.123 50.056 195.035 51.784C193.947 53.448 192.795 55.016 191.579 56.488C189.275 59.432 187.547 60.904 186.395 60.904C185.371 60.904 184.411 60.584 183.515 59.944C182.619 59.304 182.171 58.376 182.171 57.16C182.171 55.88 182.427 54.408 182.939 52.744C183.515 51.016 184.027 49.672 184.475 48.712C183.131 50.76 181.595 52.808 179.867 54.856C178.139 56.904 176.507 58.632 174.971 60.04C173.499 61.384 172.411 62.056 171.707 62.056ZM195.466 91.24C194.57 91.24 193.61 90.92 192.586 90.28C191.498 89.64 190.602 88.84 189.898 87.88C189.13 86.984 188.746 86.056 188.746 85.096C188.746 84.072 189.322 82.792 190.474 81.256C191.626 79.72 193.034 78.152 194.698 76.552C196.362 74.952 198.026 73.48 199.69 72.136C201.29 70.792 202.57 69.768 203.53 69.064C205.514 67.72 207.338 66.568 209.003 65.608C210.731 64.648 212.427 63.752 214.091 62.92C215.755 62.152 217.803 61.288 220.234 60.328C222.667 59.304 224.875 58.472 226.859 57.832C227.371 56.936 227.883 55.688 228.395 54.088C228.907 52.424 229.355 50.728 229.739 49C230.123 47.272 230.315 45.896 230.315 44.872C230.315 44.552 230.283 44.2 230.219 43.816C230.155 43.432 229.995 43.24 229.739 43.24C229.483 43.24 229.195 43.4 228.875 43.72C228.107 44.552 227.115 45.832 225.899 47.56C224.683 49.224 223.371 50.984 221.963 52.84C220.555 54.632 219.179 56.2 217.835 57.544C216.555 58.824 215.403 59.464 214.379 59.464C213.099 59.464 212.107 59.208 211.403 58.696C210.699 58.248 210.347 57.384 210.347 56.104C210.347 54.952 210.571 53.704 211.019 52.36C211.467 51.016 211.979 49.768 212.555 48.616C213.131 47.464 213.579 46.632 213.898 46.12C213.579 46.312 213.419 46.344 213.419 46.216C213.483 46.088 213.547 45.992 213.611 45.928C213.675 45.672 213.835 45.352 214.091 44.968C215.755 42.536 217.195 40.616 218.411 39.208C219.691 37.8 220.555 37.096 221.003 37.096C221.515 37.096 221.995 37.288 222.443 37.672C222.955 37.992 223.531 38.408 224.171 38.92C223.467 39.496 222.475 40.584 221.195 42.184C219.915 43.784 218.603 45.576 217.259 47.56C215.979 49.48 214.923 51.336 214.091 53.128C213.707 53.896 213.419 54.568 213.227 55.144C213.099 55.72 213.035 56.168 213.035 56.488C213.035 57.256 213.355 57.64 213.995 57.64C214.571 57.64 215.275 57.384 216.107 56.872C216.939 56.36 217.739 55.688 218.507 54.856C220.939 52.36 223.147 49.736 225.131 46.984C227.115 44.232 229.035 41.448 230.891 38.632C231.019 38.632 231.147 38.632 231.275 38.632C231.467 38.568 231.627 38.536 231.755 38.536C232.651 38.536 233.355 38.792 233.867 39.304C234.251 39.688 234.443 40.488 234.443 41.704C234.443 42.92 234.251 44.392 233.867 46.12C233.547 47.848 233.131 49.576 232.619 51.304C232.171 52.968 231.723 54.44 231.275 55.72C230.827 57 230.507 57.8 230.315 58.12C232.043 58.376 233.323 59.08 234.155 60.232C235.051 61.32 235.499 62.6 235.499 64.072C235.499 64.328 235.499 64.584 235.499 64.84C235.499 65.096 235.467 65.352 235.403 65.608C235.339 66.056 235.147 66.248 234.827 66.184C234.571 66.184 234.475 65.992 234.539 65.608C234.667 63.944 234.443 62.472 233.867 61.192C233.291 59.976 231.915 59.368 229.739 59.368C228.587 61.608 227.051 64.136 225.131 66.952C223.275 69.768 221.131 72.584 218.699 75.4C216.331 78.28 213.803 80.904 211.115 83.272C208.491 85.704 205.834 87.624 203.146 89.032C200.458 90.504 197.898 91.24 195.466 91.24ZM194.41 89.416C195.946 89.416 198.026 88.68 200.65 87.208C202.506 86.184 204.49 84.744 206.602 82.888C208.715 81.032 210.795 78.952 212.843 76.648C214.955 74.408 216.907 72.168 218.699 69.928C220.555 67.688 222.123 65.608 223.403 63.688C224.683 61.832 225.579 60.392 226.091 59.368C224.363 59.752 222.219 60.488 219.659 61.576C217.099 62.664 214.379 64.04 211.499 65.704C208.683 67.432 205.93 69.352 203.242 71.464C200.554 73.576 198.186 75.816 196.138 78.184C194.986 79.592 194.026 81.064 193.258 82.6C192.426 84.2 192.01 85.608 192.01 86.824C192.01 88.552 192.81 89.416 194.41 89.416Z" fill="#010101"/>
<path d="M118.968 128.168C116.152 128.168 113.4 127.752 110.712 126.92C108.088 126.088 105.656 124.68 103.416 122.696C101.368 121.416 99.672 119.592 98.328 117.224C97.048 114.792 96.536 112.296 96.792 109.736C97.112 106.728 98.168 103.624 99.96 100.424C101.752 97.224 104.088 94.056 106.968 90.92C109.848 87.72 113.048 84.744 116.568 81.992C120.152 79.176 123.864 76.68 127.704 74.504C131.544 72.264 135.288 70.504 138.936 69.224C143.16 67.752 147.192 67.016 151.032 67.016C153.464 67.016 155.448 67.336 156.984 67.976C158.584 68.616 159.416 69.608 159.48 70.952C160.76 72.68 161.4 74.568 161.4 76.616C161.4 79.048 160.568 81.448 158.904 83.816C157.304 86.184 155.32 88.424 152.952 90.536C150.584 92.648 148.184 94.504 145.752 96.104C143.32 97.64 141.272 98.856 139.608 99.752C139.352 100.008 139.096 100.136 138.84 100.136C138.392 100.136 138.392 99.848 138.84 99.272C139.928 98.888 141.272 98.088 142.872 96.872C144.536 95.592 146.296 94.056 148.152 92.264C150.008 90.472 151.736 88.616 153.336 86.696C155 84.712 156.344 82.792 157.368 80.936C158.392 79.016 158.904 77.32 158.904 75.848C158.904 74.504 158.36 73.448 157.272 72.68C156.184 71.848 154.392 71.432 151.896 71.432C148.568 71.432 144.824 72.136 140.664 73.544C136.504 74.888 132.28 76.808 127.992 79.304C123.704 81.8 119.704 84.808 115.992 88.328C112.28 91.784 109.176 95.656 106.68 99.944C104.248 104.232 102.776 108.808 102.264 113.672C102.2 113.928 102.168 114.184 102.168 114.44C102.168 114.632 102.168 114.856 102.168 115.112C102.168 117.736 102.84 119.848 104.184 121.448C105.592 123.048 107.416 124.2 109.656 124.904C111.896 125.608 114.328 125.96 116.952 125.96C118.04 125.96 119.128 125.896 120.216 125.768C121.368 125.64 122.488 125.48 123.576 125.288C129.016 124.264 134.04 122.728 138.648 120.68C143.256 118.632 147.352 116.392 150.936 113.96C151.512 113.576 151.896 113.384 152.088 113.384C152.216 113.384 152.28 113.448 152.28 113.576C152.28 113.768 152.088 114.056 151.704 114.44C150.296 115.784 148.6 117.192 146.616 118.664C144.632 120.136 142.616 121.384 140.568 122.408C137.432 123.944 133.976 125.288 130.2 126.44C126.488 127.592 122.744 128.168 118.968 128.168ZM156.613 126.056C155.269 126.056 154.245 125.416 153.541 124.136C152.901 122.792 152.581 121.64 152.581 120.68C152.581 118.44 153.253 116.104 154.597 113.672C155.941 111.24 157.637 108.936 159.685 106.76C161.797 104.584 164.005 102.824 166.309 101.48C168.613 100.136 170.757 99.464 172.741 99.464C173.317 99.464 173.957 99.72 174.661 100.232C175.429 100.68 176.133 101.416 176.773 102.44C176.901 102.568 177.061 102.856 177.253 103.304C177.445 103.688 177.445 104.04 177.253 104.36L177.157 104.168C177.029 103.848 176.741 103.592 176.293 103.4C175.845 103.144 175.173 103.016 174.277 103.016C172.805 103.016 171.141 103.528 169.285 104.552C167.493 105.576 165.669 106.952 163.813 108.68C162.021 110.408 160.389 112.296 158.917 114.344C157.445 116.392 156.357 118.472 155.653 120.584C155.205 121.672 154.981 122.6 154.981 123.368C154.981 124.328 155.333 124.808 156.037 124.808C156.549 124.808 157.157 124.552 157.861 124.04C159.205 123.016 160.613 121.704 162.085 120.104C163.557 118.504 164.965 116.84 166.309 115.112C167.717 113.384 168.933 111.784 169.957 110.312C171.045 108.84 171.813 107.752 172.261 107.048C172.453 106.792 172.677 106.664 172.933 106.664C173.253 106.6 173.637 106.568 174.085 106.568C175.365 106.568 176.165 106.792 176.485 107.24C176.869 107.624 176.901 108.04 176.581 108.488C175.749 109.704 174.853 111.112 173.893 112.712C172.997 114.312 172.197 115.88 171.493 117.416C170.853 118.952 170.533 120.328 170.533 121.544C170.533 122.504 170.917 122.984 171.685 122.984C172.389 122.984 173.157 122.568 173.989 121.736C174.757 121.032 175.653 120.008 176.677 118.664C177.765 117.32 178.821 115.912 179.845 114.44C180.933 112.968 181.829 111.688 182.533 110.6C182.789 110.28 182.981 110.152 183.109 110.216C183.301 110.216 183.301 110.408 183.109 110.792C182.085 112.392 181.029 114.056 179.941 115.784C178.853 117.448 177.701 119.016 176.485 120.488C174.181 123.432 172.453 124.904 171.301 124.904C170.277 124.904 169.317 124.584 168.421 123.944C167.525 123.304 167.077 122.376 167.077 121.16C167.077 119.88 167.333 118.408 167.845 116.744C168.421 115.016 168.933 113.672 169.381 112.712C168.037 114.76 166.501 116.808 164.773 118.856C163.045 120.904 161.413 122.632 159.877 124.04C158.405 125.384 157.317 126.056 156.613 126.056ZM208.024 132.488C206.296 132.488 205.144 131.944 204.568 130.856C203.992 129.832 203.704 128.808 203.704 127.784C203.704 126.12 204.024 124.392 204.664 122.6C205.368 120.744 206.136 118.92 206.968 117.128C208.44 114.12 209.592 111.848 210.424 110.312C211.256 108.776 211.832 107.624 212.152 106.856C212.536 106.088 212.728 105.384 212.728 104.744C212.728 104.104 212.568 103.688 212.248 103.496C211.928 103.304 211.608 103.208 211.288 103.208C210.84 103.208 210.328 103.4 209.752 103.784C209.176 104.104 208.632 104.52 208.12 105.032C207.032 106.184 205.848 107.656 204.568 109.448C203.288 111.176 202.04 113 200.824 114.92C199.672 116.776 198.648 118.472 197.752 120.008C196.92 121.544 196.344 122.632 196.024 123.272C195.448 124.424 194.776 125 194.008 125C193.112 125 192.184 124.36 191.224 123.08C191.672 122.056 192.184 120.904 192.76 119.624C193.336 118.28 193.912 116.904 194.488 115.496C195.192 113.832 195.832 112.008 196.408 110.024C197.048 108.04 197.368 106.376 197.368 105.032C197.368 103.688 197.016 103.016 196.312 103.016C195.736 103.016 194.968 103.496 194.008 104.456C193.112 105.288 191.992 106.568 190.648 108.296C189.368 109.96 188.056 111.816 186.712 113.864C185.368 115.912 184.184 117.896 183.16 119.816C182.2 121.672 181.592 123.208 181.336 124.424C181.208 124.744 180.92 124.904 180.472 124.904C179.896 124.904 179.288 124.648 178.648 124.136C178.008 123.624 177.72 122.792 177.784 121.64C177.784 121.448 178.04 120.744 178.552 119.528C179.064 118.248 179.672 116.776 180.376 115.112C181.144 113.448 181.88 111.816 182.584 110.216C183.288 108.616 183.864 107.336 184.312 106.376C183.864 105.992 183.608 105.704 183.544 105.512C183.544 105.32 183.576 105.128 183.64 104.936C183.832 104.68 184.12 104.2 184.504 103.496C184.888 102.728 185.272 101.992 185.656 101.288C186.04 100.52 186.264 100.008 186.328 99.752C186.584 99.624 187.096 99.432 187.864 99.176C188.696 98.856 189.496 98.696 190.264 98.696H190.648C191.416 98.696 191.8 98.92 191.8 99.368C191.8 99.816 191.576 100.392 191.128 101.096C190.936 101.416 190.52 102.184 189.88 103.4C189.24 104.552 188.504 105.896 187.672 107.432C186.84 108.968 186.072 110.44 185.368 111.848C184.728 113.192 184.248 114.248 183.928 115.016C183.608 115.72 183.512 116.456 183.64 117.224C184.92 115.112 186.456 112.776 188.248 110.216C190.04 107.592 191.928 105.256 193.912 103.208C194.68 102.312 195.512 101.864 196.408 101.864C198.2 101.864 199.48 102.28 200.248 103.112C201.08 103.944 201.496 104.872 201.496 105.896C201.496 107.112 201.144 108.52 200.44 110.12C200.184 110.76 199.736 111.912 199.096 113.576C198.456 115.176 197.816 116.744 197.176 118.28C198.136 116.936 199.32 115.24 200.728 113.192C202.2 111.144 203.704 109.128 205.24 107.144C206.84 105.096 208.28 103.4 209.56 102.056C210.84 100.712 211.768 100.04 212.344 100.04C213.752 100.04 215 100.552 216.088 101.576C217.24 102.536 217.816 103.368 217.816 104.072C217.816 105.096 217.336 106.44 216.376 108.104C215.416 109.768 213.816 112.392 211.576 115.976C210.296 118.024 209.016 120.328 207.736 122.888C206.52 125.384 205.912 127.56 205.912 129.416C205.912 131.08 206.392 131.912 207.352 131.912C207.928 131.912 208.536 131.624 209.176 131.048C209.624 130.664 210.072 130.248 210.52 129.8C210.968 129.352 211.416 128.968 211.864 128.648C211.352 129.8 210.808 130.728 210.232 131.432C209.656 132.136 208.92 132.488 208.024 132.488ZM238.165 97.256C237.205 96.872 236.373 96.264 235.669 95.432C235.029 94.536 234.805 93.576 234.997 92.552C235.125 91.976 235.285 91.624 235.477 91.496C235.733 91.304 236.405 91.176 237.493 91.112L242.581 90.248C243.157 90.12 243.445 90.12 243.445 90.248C243.445 90.504 243.221 90.696 242.773 90.824C241.749 91.08 240.853 91.464 240.085 91.976C239.317 92.488 238.677 93.192 238.165 94.088C238.037 94.28 237.973 94.568 237.973 94.952C237.973 95.336 238.037 95.72 238.165 96.104C238.357 96.424 238.549 96.712 238.741 96.968C238.933 97.224 238.933 97.352 238.741 97.352C238.613 97.352 238.421 97.32 238.165 97.256ZM226.933 126.344C224.757 126.344 223.221 125.672 222.325 124.328C221.493 122.92 221.077 121.256 221.077 119.336C221.077 117.864 221.269 116.36 221.653 114.824C222.101 113.288 222.645 111.912 223.285 110.696C222.709 110.44 222.517 110.216 222.709 110.024C223.157 109.384 223.701 108.584 224.341 107.624C225.045 106.664 225.749 105.704 226.453 104.744C227.285 103.656 228.021 102.76 228.661 102.056C229.365 101.352 230.101 101 230.869 101C231.381 101 231.829 101.16 232.213 101.48C232.661 101.8 233.109 102.12 233.557 102.44C232.085 103.976 230.613 105.864 229.141 108.104C227.669 110.344 226.453 112.712 225.493 115.208C224.597 117.64 224.149 120.04 224.149 122.408C224.149 123.432 224.373 124.168 224.821 124.616C225.333 125 225.941 125.192 226.645 125.192C228.117 125.192 229.429 124.68 230.581 123.656C231.797 122.568 233.205 121 234.805 118.952C236.469 116.84 238.037 114.632 239.509 112.328C239.893 111.816 240.181 111.528 240.373 111.464C240.629 111.4 240.661 111.528 240.469 111.848C239.957 112.872 239.157 114.184 238.069 115.784C237.045 117.32 235.957 118.856 234.805 120.392C233.653 121.928 232.661 123.112 231.829 123.944C230.997 124.776 230.133 125.384 229.237 125.768C228.405 126.152 227.637 126.344 226.933 126.344ZM243.143 126.728C241.543 126.728 240.167 126.152 239.015 125C237.863 123.912 237.287 122.12 237.287 119.624C237.287 116.424 238.119 112.52 239.783 107.912C241.447 103.304 243.559 98.472 246.119 93.416C248.103 89.64 250.215 86.024 252.455 82.568C254.695 79.112 256.903 76.04 259.079 73.352C261.255 70.6 263.239 68.456 265.031 66.92C266.887 65.32 268.391 64.52 269.543 64.52C270.631 64.52 271.431 64.808 271.943 65.384C272.519 65.96 272.999 66.6 273.383 67.304C273.831 68.008 274.407 68.584 275.111 69.032C275.047 70.504 274.279 72.36 272.807 74.6C271.335 76.84 269.575 79.272 267.527 81.896C266.183 83.496 264.263 85.768 261.767 88.712C259.335 91.592 256.903 94.568 254.471 97.64C252.487 100.072 250.727 102.408 249.191 104.648C247.655 106.888 246.471 108.744 245.639 110.216C245.383 110.664 245.191 110.824 245.062 110.696C244.935 110.568 244.935 110.376 245.062 110.12C245.703 108.84 246.695 107.208 248.039 105.224C249.447 103.176 251.015 101 252.743 98.696C254.471 96.392 256.167 94.184 257.831 92.072C259.495 89.896 260.935 88.008 262.151 86.408C263.367 84.808 264.199 83.752 264.647 83.24C265.607 82.024 266.535 80.872 267.431 79.784C268.327 78.632 269.127 77.544 269.831 76.52C270.599 75.368 271.143 74.344 271.463 73.448C271.847 72.552 272.039 71.816 272.039 71.24C272.039 70.216 271.623 69.704 270.791 69.704C270.215 69.704 269.479 69.992 268.583 70.568C267.751 71.144 266.791 72.072 265.703 73.352C264.103 75.272 262.215 77.64 260.039 80.456C257.927 83.208 255.751 86.248 253.511 89.576C251.271 92.904 249.191 96.392 247.271 100.04C245.415 103.624 243.879 107.24 242.663 110.888C241.511 114.472 240.935 117.928 240.935 121.256C240.935 122.792 241.255 123.88 241.895 124.52C242.535 125.16 243.303 125.48 244.199 125.48C245.159 125.48 246.151 125.224 247.174 124.712C248.263 124.136 249.159 123.432 249.863 122.6C250.951 121.448 252.007 120.168 253.031 118.76C254.119 117.352 255.079 116.04 255.911 114.824C256.807 113.544 257.447 112.584 257.831 111.944C258.023 111.624 258.215 111.464 258.406 111.464C258.727 111.464 258.727 111.72 258.406 112.232C257.383 113.96 256.167 115.784 254.759 117.704C253.415 119.56 252.199 121.16 251.111 122.504C250.087 123.784 248.839 124.808 247.367 125.576C245.959 126.344 244.551 126.728 243.143 126.728ZM262.547 126.44C260.691 126.44 259.091 125.736 257.747 124.328C256.467 122.92 255.827 121 255.827 118.568C255.827 117.672 255.923 116.712 256.115 115.688C256.371 114.6 256.723 113.48 257.171 112.328C258.131 110.088 259.443 107.944 261.107 105.896C262.835 103.848 264.691 102.152 266.674 100.808C268.659 99.464 270.547 98.792 272.339 98.792C272.531 98.792 272.755 98.888 273.011 99.08C273.267 99.208 273.459 99.336 273.587 99.464L274.067 99.944C274.835 100.712 275.571 101.16 276.275 101.288C277.043 101.416 277.651 101.8 278.099 102.44C278.867 103.656 279.251 105.128 279.251 106.856C279.251 109.224 278.515 111.816 277.043 114.632C275.635 117.384 273.715 119.88 271.283 122.12C270.067 123.208 268.723 124.2 267.251 125.096C265.779 125.992 264.211 126.44 262.547 126.44ZM263.219 125.384C264.755 125.384 266.323 124.872 267.923 123.848C269.523 122.76 270.995 121.352 272.339 119.624C273.747 117.896 274.931 116.072 275.891 114.152C276.915 112.232 277.555 110.408 277.811 108.68C277.875 108.36 277.906 108.04 277.906 107.72C277.971 107.336 278.003 107.016 278.003 106.76C278.003 105.032 277.587 103.784 276.755 103.016C275.923 102.184 274.931 101.768 273.779 101.768C272.563 101.768 271.315 102.152 270.035 102.92C268.819 103.624 267.283 105.096 265.427 107.336C263.571 109.512 261.907 111.784 260.435 114.152C259.091 116.264 258.419 118.312 258.419 120.296C258.419 121.704 258.803 122.92 259.571 123.944C260.403 124.904 261.619 125.384 263.219 125.384Z" fill="#010101"/>
</svg>
